<?xml version="1.0" standalone="no"?>
<!DOCTYPE svg PUBLIC "-//W3C//DTD SVG 20010904//EN"
 "http://www.w3.org/TR/2001/REC-SVG-20010904/DTD/svg10.dtd">
<svg version="1.0" xmlns="http://www.w3.org/2000/svg"
 width="1080.000000pt" height="1920.000000pt" viewBox="0 0 1080.000000 1920.000000"
 preserveAspectRatio="xMidYMid meet">

<g transform="translate(0.000000,1920.000000) scale(0.100000,-0.100000)"
fill="#000000" stroke="none">
<path d="M0 9600 l0 -9600 5400 0 5400 0 0 9600 0 9600 -5400 0 -5400 0 0
-9600z m7255 6848 c-4 -13 -26 -72 -50 -131 -70 -170 -88 -316 -57 -442 28
-109 42 -210 42 -293 0 -46 6 -84 19 -113 13 -29 22 -81 26 -154 5 -83 12
-119 28 -147 18 -34 19 -43 9 -89 -9 -39 -10 -65 -1 -108 11 -53 10 -62 -20
-149 -35 -101 -35 -131 0 -188 14 -24 19 -50 19 -109 0 -71 3 -83 31 -127 l32
-49 -13 -75 -13 -75 36 -72 c33 -65 41 -95 38 -135 -2 -28 -26 -4 -27 28 -1
24 -10 41 -30 58 -77 62 -74 57 -74 116 0 50 -3 57 -31 78 -34 25 -33 18 -13
160 6 44 3 52 -29 100 -55 80 -69 129 -68 234 1 57 -5 107 -14 133 -29 83 -29
130 0 242 44 166 44 177 -4 233 -39 45 -41 50 -41 116 0 80 -6 100 -30 100
-26 0 -35 -16 -60 -100 -18 -59 -23 -102 -24 -200 l-1 -125 -54 -77 -53 -76
-8 -99 c-5 -73 -14 -115 -34 -163 -19 -45 -29 -88 -33 -140 -5 -90 -11 -120
-22 -120 -13 0 -28 46 -40 119 -11 68 -24 91 -50 91 -37 1 -46 18 -53 102 -10
122 -23 186 -51 248 -14 30 -31 93 -38 140 -11 79 -15 87 -51 120 -21 20 -38
41 -38 47 0 7 -14 27 -31 44 -31 31 -31 34 -26 103 8 91 -7 141 -43 141 -32 0
-61 -52 -91 -166 -22 -81 -22 -90 -9 -172 14 -93 16 -77 -36 -422 -8 -55 -14
-132 -14 -170 0 -68 -1 -72 -44 -123 -66 -81 -78 -140 -54 -267 10 -59 9 -68
-15 -135 -15 -39 -27 -82 -27 -95 0 -32 -18 -42 -24 -13 -5 22 -15 149 -18
233 0 22 3 65 7 95 6 47 3 67 -20 132 -35 100 -33 177 8 235 15 21 39 55 53
75 36 52 52 173 36 284 -18 121 -15 184 12 261 20 57 61 213 98 375 7 29 12
35 27 31 13 -3 24 2 33 16 16 26 24 27 31 1 14 -54 68 -26 86 44 6 23 23 59
39 79 16 20 35 58 41 84 7 26 19 64 28 84 17 41 59 97 67 89 3 -3 -9 -51 -25
-105 -18 -57 -33 -133 -36 -177 -5 -74 -4 -78 22 -102 26 -24 27 -30 26 -109
-1 -65 3 -93 19 -130 15 -32 19 -57 15 -80 -5 -27 -1 -40 20 -66 24 -28 27
-38 22 -84 -7 -75 9 -275 28 -326 8 -24 15 -58 15 -75 0 -42 11 -56 38 -50 36
10 59 92 72 255 17 218 38 290 111 382 21 27 41 65 45 85 4 21 15 59 25 85 11
26 19 64 19 85 0 63 47 184 95 247 44 57 75 133 75 186 0 39 16 77 49 115 16
18 42 55 57 83 30 53 50 68 39 29z m-129 -103 c-35 -50 -46 -76 -46 -104 0
-63 -26 -130 -76 -194 -49 -63 -80 -147 -102 -272 -20 -119 -42 -178 -89 -239
-65 -82 -92 -179 -104 -366 -11 -179 -36 -280 -50 -205 -4 22 -15 67 -23 100
-11 41 -16 107 -17 210 -1 138 -2 152 -22 173 -16 17 -20 33 -18 68 2 32 -4
55 -19 82 -20 33 -22 46 -16 113 6 74 5 77 -24 114 -24 30 -30 48 -30 85 0 56
46 198 52 160 2 -14 0 -43 -5 -65 -10 -46 -6 -80 28 -265 34 -180 52 -251 76
-289 28 -47 56 -39 101 29 64 96 99 179 134 316 26 103 48 162 98 261 58 116
86 179 120 268 10 28 66 95 74 89 2 -1 -17 -32 -42 -69z m-5816 24 c77 -24
291 -125 283 -133 -13 -12 -59 -6 -93 14 -67 37 -235 118 -250 120 -74 10
-106 0 -186 -59 -122 -89 -134 -94 -221 -86 -41 4 -72 9 -69 12 2 3 38 11 78
18 72 12 135 38 189 76 79 55 174 69 269 38z m5953 -36 c-3 -21 -16 -74 -30
-118 -36 -115 -41 -243 -15 -371 11 -54 25 -146 31 -204 6 -58 18 -139 26
-180 8 -41 21 -110 29 -154 17 -86 37 -126 64 -126 25 0 77 40 142 109 30 33
74 68 97 80 53 26 68 27 27 2 -17 -10 -51 -42 -75 -71 -24 -29 -53 -60 -64
-69 -61 -51 -84 -80 -90 -117 -4 -21 -20 -62 -36 -90 -35 -62 -36 -77 -5 -145
21 -46 24 -69 24 -157 0 -116 9 -137 54 -128 34 7 123 -35 139 -66 10 -19 17
-20 82 -13 89 8 158 43 197 100 16 23 36 47 45 55 26 22 55 86 55 122 0 22
-14 54 -40 95 l-41 62 22 63 c24 73 26 139 4 191 -8 20 -15 45 -15 56 0 22
-68 90 -103 105 -12 5 -44 15 -72 22 l-50 14 44 -5 c24 -3 75 -19 113 -35 86
-37 111 -37 137 -4 l20 26 6 -24 c3 -13 1 -75 -6 -138 -24 -237 -25 -215 11
-246 34 -31 34 -35 10 -122 -11 -37 -10 -48 4 -81 15 -32 16 -45 6 -81 -6 -24
-9 -65 -5 -94 3 -28 3 -46 -2 -41 -15 20 -62 45 -83 45 -11 0 -38 -11 -59 -24
-85 -54 -143 -76 -202 -76 -59 0 -83 8 -198 64 -64 31 -71 33 -91 19 -20 -14
-22 -22 -17 -87 3 -39 7 -82 10 -96 14 -72 38 -255 35 -274 -3 -18 -7 -15 -27
19 -25 42 -28 66 -16 170 7 57 5 62 -25 100 -31 39 -32 43 -27 111 5 63 2 76
-19 110 -30 51 -30 95 2 191 20 61 25 88 19 123 -9 58 -9 83 0 152 7 49 5 60
-13 82 -16 21 -21 48 -27 138 -4 71 -14 130 -25 158 -12 30 -20 83 -24 160 -3
73 -15 153 -31 217 -23 94 -25 109 -15 194 6 51 13 105 16 119 6 27 75 200 80
200 1 0 0 -17 -3 -37z m-5928 -36 c50 -23 111 -55 136 -70 32 -19 60 -27 91
-27 47 0 58 -10 58 -49 0 -31 36 -54 72 -48 18 3 41 8 50 12 11 5 26 -2 43
-19 25 -25 26 -29 19 -101 -7 -74 -6 -75 26 -111 29 -33 31 -41 24 -73 -4 -20
-7 -78 -5 -130 2 -91 1 -96 -29 -137 -19 -27 -32 -60 -36 -91 -4 -26 -16 -58
-26 -70 -11 -12 -24 -43 -29 -69 -17 -90 -36 -115 -108 -139 -52 -17 -69 -28
-87 -56 -12 -19 -38 -47 -58 -62 -55 -42 -42 -99 24 -109 19 -2 33 -19 60 -68
32 -59 39 -65 65 -63 24 1 34 -5 50 -30 18 -29 25 -32 69 -32 43 0 52 -4 80
-37 18 -21 39 -56 46 -79 10 -28 26 -49 55 -69 43 -30 66 -67 85 -138 9 -34
18 -46 49 -62 25 -12 50 -38 70 -69 16 -28 43 -58 58 -67 51 -32 73 -57 73
-83 0 -31 40 -119 74 -164 25 -33 51 -121 41 -138 -4 -5 -28 15 -55 43 -34 37
-53 70 -65 108 -29 98 -42 118 -99 155 -40 26 -64 51 -88 93 -28 47 -43 62
-88 83 -47 24 -58 35 -86 91 -42 84 -56 95 -98 80 -49 -18 -53 -16 -81 45 -33
73 -48 90 -89 97 -18 4 -41 15 -51 26 -19 21 -69 27 -80 10 -14 -22 -35 -7
-64 44 -39 67 -71 90 -117 82 -40 -8 -76 9 -118 53 -37 39 -57 39 -90 0 -32
-38 -33 -74 -4 -133 19 -40 20 -48 8 -71 -12 -22 -11 -33 4 -81 17 -55 17 -57
-4 -115 -27 -70 -22 -106 21 -169 43 -64 49 -84 38 -122 -15 -49 -13 -112 5
-146 23 -44 20 -55 -19 -102 -30 -36 -35 -50 -36 -93 -1 -66 -17 -35 -18 35
-1 35 -7 54 -28 78 -23 28 -27 42 -27 100 -1 53 -6 75 -22 97 -12 16 -25 40
-29 53 -4 14 -20 48 -35 77 -41 77 -46 121 -20 178 21 45 21 48 4 93 -10 26
-28 63 -41 83 -20 30 -22 41 -13 63 19 52 12 172 -16 253 -18 51 -24 85 -20
108 5 26 0 42 -28 83 -43 64 -45 70 -34 108 6 22 4 42 -7 69 -17 38 -22 109
-16 207 4 54 2 60 -35 103 -82 98 -79 84 -58 271 6 50 5 53 -41 104 -34 39
-45 59 -43 78 2 22 9 28 34 30 20 2 51 20 83 47 64 54 80 60 141 45 45 -11 54
-10 105 14 30 14 81 45 113 69 31 24 66 49 77 55 40 23 97 13 190 -31z m-589
-80 c-11 -7 -39 -30 -63 -51 -35 -32 -47 -37 -64 -30 -19 9 -17 12 23 40 40
29 90 52 113 53 6 0 1 -6 -9 -12z m981 -39 l43 -24 -50 -13 c-27 -7 -53 -10
-59 -7 -5 3 -11 23 -13 45 -4 44 0 44 79 -1z m4698 -49 c-4 -6 -13 -37 -21
-70 -8 -33 -29 -81 -48 -108 -18 -27 -37 -66 -40 -85 -4 -20 -11 -36 -16 -36
-6 0 -10 4 -10 9 0 5 -7 17 -16 26 -15 14 -18 14 -40 0 -13 -8 -34 -15 -46
-15 -18 0 -13 5 19 21 53 26 118 90 145 143 11 22 27 46 34 54 8 7 14 21 14
31 0 9 5 22 12 29 15 15 21 16 13 1z m-4524 -293 c21 -143 -3 -288 -74 -448
-8 -18 -20 -48 -26 -67 -11 -33 -69 -131 -77 -131 -3 0 2 13 11 30 8 16 18 51
22 77 4 32 14 53 31 68 19 16 26 34 29 76 3 31 13 62 23 74 45 51 53 84 40
161 -8 52 -8 79 -1 93 6 11 11 38 11 61 0 33 -6 47 -31 69 l-30 28 7 79 7 78
23 -84 c13 -47 29 -121 35 -164z m-1260 97 c7 -18 5 -43 -6 -85 -8 -33 -15
-69 -15 -81 0 -42 20 -95 48 -123 58 -61 72 -87 72 -130 0 -24 -4 -53 -9 -67
-9 -23 -1 -77 21 -142 11 -33 11 -33 2 -88 -6 -33 -1 -43 35 -91 37 -48 40
-56 31 -81 -9 -24 -6 -40 17 -94 23 -56 27 -80 27 -156 -1 -49 -4 -105 -9
-123 -6 -26 -3 -38 18 -65 14 -18 31 -52 38 -75 11 -37 10 -48 -4 -78 -27 -56
-22 -113 17 -188 19 -36 39 -81 46 -100 6 -19 18 -40 26 -46 10 -9 14 -34 14
-90 0 -73 2 -78 30 -103 24 -22 30 -35 30 -70 l0 -42 -19 35 c-34 62 -43 83
-68 175 -14 50 -38 120 -54 157 -38 87 -50 142 -55 253 -3 50 -9 104 -15 120
-6 17 -14 91 -19 165 -9 134 -14 155 -100 475 -16 61 -29 135 -30 165 -1 108
-18 184 -60 266 -36 72 -41 89 -49 190 -5 61 -14 120 -20 132 -6 11 -11 28
-11 37 0 14 5 13 31 -5 17 -13 35 -34 40 -47z m1599 -111 c0 -41 14 -62 41
-62 27 0 28 -8 16 -98 -15 -113 -47 -129 -113 -53 -29 33 -30 51 -3 104 19 36
20 47 11 82 -12 44 -2 65 29 65 15 0 19 -7 19 -38z m-86 -94 c-10 -18 -21 -49
-25 -68 -6 -31 -7 -29 -8 20 0 30 4 78 11 106 l12 53 13 -40 c12 -34 12 -43
-3 -71z m166 75 c12 -21 16 -32 9 -25 -7 6 -23 12 -36 12 -24 0 -27 7 -17 34
9 25 20 19 44 -21z m3815 -40 c-15 -87 -66 -285 -89 -347 -30 -78 -35 -166
-18 -283 7 -53 8 -107 3 -157 -8 -67 -14 -83 -48 -129 -22 -29 -48 -67 -58
-86 -27 -52 -23 -136 10 -234 27 -80 28 -87 16 -140 -8 -31 -11 -75 -8 -99 3
-23 7 -50 8 -58 1 -8 1 -40 0 -70 -4 -106 -22 -13 -31 160 -4 91 -13 190 -20
220 -7 31 -10 88 -8 135 5 72 11 91 54 175 l49 95 1 200 c0 110 5 218 11 240
72 271 97 355 111 383 9 17 18 32 20 32 1 0 0 -17 -3 -37z m-2737 -22 c2 -23
-4 -65 -13 -92 -17 -51 -18 -45 15 -194 6 -29 4 -57 -7 -100 -18 -66 -11 -152
11 -161 8 -3 30 6 51 20 21 14 42 26 48 26 6 0 33 17 61 38 28 22 68 42 88 46
21 4 41 13 45 20 24 39 248 216 275 216 18 0 6 -19 -22 -37 -17 -11 -45 -42
-63 -69 -21 -32 -52 -60 -92 -85 -45 -27 -67 -48 -87 -85 -15 -27 -28 -56 -28
-65 0 -34 -46 -68 -148 -110 -42 -17 -57 -30 -73 -61 l-20 -39 33 -57 c18 -31
59 -94 93 -139 55 -76 64 -84 112 -98 l52 -15 12 -56 c7 -31 25 -75 41 -98 19
-30 31 -65 38 -117 12 -84 32 -160 61 -236 21 -53 19 -76 -6 -67 -7 3 -18 -4
-25 -16 -15 -28 -27 -18 -35 29 -3 21 -22 62 -41 91 -19 28 -34 57 -34 63 0
25 -53 123 -81 153 -19 20 -36 53 -45 90 -18 67 -55 144 -79 164 -9 7 -25 31
-36 52 -21 41 -48 49 -84 24 -11 -7 -32 -16 -47 -20 -31 -7 -30 -6 -59 -156
-11 -63 -31 -140 -44 -170 -12 -30 -25 -67 -29 -82 -3 -16 -13 -28 -21 -28
-22 0 -19 80 4 138 10 26 28 102 40 170 18 107 19 126 7 149 -11 23 -11 33 4
77 19 56 35 204 25 236 -9 30 -35 24 -77 -17 -21 -20 -41 -34 -44 -30 -4 3 1
28 10 54 10 26 21 70 26 97 5 26 16 69 24 95 46 138 67 256 64 361 -2 97 0
105 18 109 10 2 28 10 39 17 29 21 40 12 43 -35z m52 -152 c5 -91 13 -176 19
-191 30 -79 118 -56 286 77 22 17 53 37 69 43 22 10 16 2 -25 -36 -126 -114
-137 -122 -162 -122 -15 0 -41 -13 -60 -30 -19 -16 -61 -45 -95 -64 -49 -28
-62 -31 -66 -19 -10 26 -6 70 10 109 9 21 13 51 10 68 -3 17 -8 47 -11 66 -3
19 -11 53 -16 76 -9 32 -7 49 5 79 9 20 16 56 16 78 0 22 2 38 5 35 3 -3 10
-79 15 -169z m-186 -18 c-3 -35 -22 -125 -41 -200 -19 -75 -38 -154 -42 -176
-4 -22 -15 -53 -25 -70 l-17 -30 5 75 c2 45 16 115 35 175 18 55 37 134 42
175 6 41 16 109 22 150 l12 75 8 -55 c4 -30 4 -84 1 -119z m5606 153 c0 -9
-16 -44 -35 -78 -40 -71 -44 -114 -15 -141 25 -22 25 -32 1 -114 -11 -36 -26
-97 -35 -136 -9 -38 -26 -90 -38 -114 -19 -40 -20 -47 -7 -70 13 -23 23 -27
79 -31 57 -4 65 -8 65 -25 0 -21 10 -23 78 -9 31 5 44 3 66 -14 16 -11 47 -25
70 -32 22 -6 41 -13 41 -16 0 -3 -15 -20 -32 -36 l-33 -30 -42 22 c-32 17 -52
21 -80 17 -29 -5 -52 0 -92 18 -67 31 -86 31 -107 0 -12 -19 -15 -36 -9 -70 4
-30 1 -63 -9 -98 -10 -36 -12 -63 -7 -89 6 -27 4 -50 -10 -90 -11 -29 -21 -79
-24 -110 -14 -186 -40 -315 -55 -273 -3 9 -3 40 2 69 18 119 20 194 8 246 -10
42 -10 60 0 90 11 33 10 45 -4 80 -12 31 -14 46 -5 61 13 25 30 111 32 164 2
38 0 40 -33 45 -19 4 -49 14 -67 23 -18 9 -46 17 -63 17 -16 0 -30 4 -30 9 0
11 90 41 125 41 35 0 65 51 65 111 0 26 7 66 15 89 8 23 15 59 15 79 0 20 9
62 20 94 11 31 20 67 20 81 0 26 73 189 98 219 19 21 32 22 32 1z m-6529 -94
c-9 -22 -10 -19 -10 22 -1 63 13 98 17 43 2 -23 -1 -52 -7 -65z m6400 -20
c-17 -35 -33 -88 -37 -119 -3 -31 -12 -67 -19 -81 -7 -14 -16 -52 -20 -85 -4
-33 -14 -78 -22 -100 -7 -21 -11 -52 -7 -68 9 -41 -16 -73 -63 -81 -108 -18
-109 -18 -92 -4 46 38 54 137 16 185 -44 55 -59 84 -53 109 9 36 20 30 47 -28
69 -148 117 -129 160 62 12 52 25 100 29 105 4 6 15 33 24 62 9 28 26 61 36
74 11 12 20 27 20 32 0 6 2 8 5 5 3 -3 -8 -33 -24 -68z m143 -46 c-1 -52 -4
-98 -8 -101 -3 -4 -6 6 -6 20 0 16 -8 30 -20 37 -27 14 -25 44 5 97 14 23 27
43 28 43 2 0 2 -43 1 -96z m-2564 -47 c0 -102 0 -104 30 -132 17 -16 30 -35
30 -43 0 -8 16 -29 36 -47 33 -30 38 -42 51 -122 8 -48 26 -109 39 -135 13
-26 24 -56 24 -66 0 -10 7 -45 16 -77 10 -39 13 -77 9 -108 -4 -27 -9 -46 -12
-44 -2 3 -13 54 -24 113 -10 60 -27 134 -38 164 -10 30 -26 82 -36 115 -22 76
-47 124 -77 151 -57 51 -76 34 -88 -81 -39 -369 -74 -563 -117 -655 -30 -65
-36 -90 -44 -190 -12 -155 -24 -231 -37 -239 -6 -3 -15 -18 -21 -31 -10 -25
-10 -25 -10 -2 -1 12 10 49 24 82 28 66 30 103 14 195 -16 86 -1 144 57 214
44 53 44 54 44 131 0 43 7 114 15 157 8 43 15 98 15 123 0 25 5 65 11 90 24
102 27 143 13 209 -19 89 -18 114 10 201 28 89 46 130 58 130 4 0 8 -46 8
-103z m-4155 63 c10 -11 16 -20 13 -20 -3 0 -13 9 -23 20 -10 11 -16 20 -13
20 3 0 13 -9 23 -20z m4860 -166 c2 -11 20 -37 40 -57 47 -48 46 -53 -11 -236
-20 -63 -17 -148 6 -222 16 -50 19 -78 14 -126 -8 -83 24 -196 74 -253 30 -36
34 -46 29 -83 -2 -23 -10 -55 -17 -72 -13 -29 -13 -28 -25 45 -12 70 -27 120
-61 197 -8 17 -21 92 -30 167 -20 176 -42 260 -69 264 -45 6 -82 -73 -110
-233 -3 -16 -10 -43 -15 -60 -5 -16 -18 -63 -30 -103 -13 -45 -25 -70 -32 -66
-17 11 -2 99 28 162 20 45 28 80 33 160 6 79 12 108 28 130 11 15 35 49 54 75
l34 49 1 133 c2 94 7 149 19 187 26 84 29 87 32 23 2 -33 5 -69 8 -81z m-3082
47 c-3 -11 -36 -52 -75 -93 -38 -40 -83 -93 -101 -118 -39 -57 -66 -87 -144
-163 -79 -75 -87 -106 -48 -174 15 -27 62 -81 104 -122 42 -40 69 -70 61 -65
-8 5 -33 14 -54 19 -33 8 -49 22 -88 75 -63 86 -118 177 -118 196 0 24 45 62
88 74 66 17 123 68 144 125 25 69 46 95 110 132 38 22 66 49 88 83 35 55 41
60 33 31z m4432 4 l40 -13 -55 0 c-30 0 -71 6 -90 13 l-35 13 50 0 c28 0 68
-5 90 -13z m-175 -13 c0 -5 -10 -17 -21 -28 -12 -10 -34 -41 -49 -67 l-28 -48
-11 32 c-6 17 -11 49 -11 70 0 31 4 38 23 42 41 8 97 7 97 -1z m659 -163 c-24
-102 -18 -150 24 -180 31 -22 187 -69 230 -69 29 0 39 6 56 33 11 19 25 63 30
98 5 35 16 78 25 94 l16 30 0 -61 c0 -44 -4 -65 -16 -75 -13 -11 -15 -25 -10
-74 4 -33 10 -121 15 -195 7 -107 13 -145 31 -185 15 -32 25 -77 28 -124 5
-71 6 -74 34 -85 28 -10 29 -14 23 -51 -3 -22 -19 -83 -36 -135 -19 -60 -28
-105 -25 -125 3 -16 2 -35 -2 -42 -7 -12 -143 -65 -150 -59 -1 2 12 16 29 31
56 46 87 93 107 163 39 133 38 151 -21 358 -43 150 -54 173 -94 199 -18 11
-32 24 -33 28 0 5 16 23 35 40 19 17 35 34 35 38 0 16 -33 39 -73 50 -23 6
-55 20 -71 32 -30 21 -67 26 -101 14 -15 -5 -23 -1 -30 16 -9 20 -16 22 -76
19 -79 -4 -88 6 -57 67 22 45 36 92 47 161 4 25 16 66 26 93 19 46 20 46 23
17 2 -16 -7 -71 -19 -121z m-496 131 c53 1 64 -11 48 -53 -9 -23 -5 -35 34
-93 36 -53 45 -76 45 -109 0 -51 -6 -56 -125 -120 -107 -57 -135 -80 -135
-112 0 -21 42 -73 60 -73 19 0 54 -68 56 -111 2 -35 12 -64 38 -106 34 -56 36
-62 36 -150 0 -75 5 -106 25 -160 24 -62 22 -101 -3 -71 -17 21 -55 168 -58
221 -1 34 -10 59 -30 88 -16 22 -43 61 -61 86 -17 25 -48 62 -67 82 -32 33
-36 42 -36 91 0 62 -17 103 -43 108 -29 6 -47 -55 -47 -161 0 -60 -6 -110 -16
-138 -8 -24 -16 -62 -18 -84 -5 -71 -6 -75 -15 -75 -13 0 -19 158 -8 211 8 37
7 55 -6 88 -15 36 -15 44 -1 83 25 69 21 95 -16 129 -30 28 -32 33 -26 77 4
26 11 88 16 137 10 108 20 155 31 155 8 0 29 -63 29 -87 0 -7 9 -13 20 -13 12
0 29 16 47 48 15 26 41 64 58 85 29 36 32 38 75 32 25 -4 66 -6 93 -5z m-366
-32 c-3 -7 -5 -2 -5 12 0 14 2 19 5 13 2 -7 2 -19 0 -25z m-5707 -37 c0 -21 5
-53 11 -70 9 -26 8 -49 -5 -111 -24 -108 -12 -160 42 -189 28 -15 28 -21 -8
-95 l-31 -62 21 -56 22 -55 -26 -75 c-20 -56 -26 -94 -26 -156 0 -77 -11 -111
-24 -76 -3 9 -6 54 -6 100 0 59 -5 95 -17 117 -13 25 -16 60 -15 162 l0 130
-30 39 -31 38 27 64 c32 78 32 103 5 138 -19 25 -20 31 -9 71 7 25 10 54 7 65
-4 16 3 25 31 40 54 28 62 26 62 -19z m639 26 c33 -10 40 -15 27 -20 -29 -11
-51 -8 -97 13 l-44 20 35 0 c19 0 55 -6 79 -13z m2428 -90 c-20 -77 -20 -80
-3 -131 18 -51 18 -54 -4 -122 -18 -56 -22 -91 -21 -188 1 -105 5 -129 31
-203 31 -88 38 -137 20 -148 -19 -12 -38 15 -61 83 -12 37 -25 71 -29 75 -4 5
-27 -17 -50 -48 -47 -63 -51 -64 -139 -22 l-46 22 3 89 c3 82 5 91 34 127 17
21 56 56 88 78 52 36 59 46 65 84 3 23 15 69 26 102 10 33 30 107 44 164 14
57 30 110 37 118 23 29 26 -4 5 -80z m-2997 -96 c0 -88 3 -111 20 -139 39 -64
63 -54 115 47 l34 66 1 -37 c0 -21 -9 -61 -19 -90 -11 -29 -22 -69 -25 -89 -4
-20 -22 -58 -42 -83 -43 -56 -45 -109 -6 -114 15 -2 22 -9 18 -17 -2 -7 -10
-32 -17 -54 -16 -54 1 -74 63 -75 l43 -1 6 -49 c4 -36 11 -53 27 -64 16 -10
22 -24 21 -46 -1 -24 -3 -26 -6 -8 -2 12 -8 20 -13 17 -5 -3 -27 21 -50 54
-76 109 -132 115 -174 18 l-23 -51 -7 38 c-5 28 0 56 21 116 28 79 28 79 10
128 -22 65 -22 79 8 127 35 58 33 87 -12 123 -35 28 -37 33 -37 83 0 30 8 76
18 104 16 46 16 52 1 92 -21 55 -11 96 11 44 9 -22 14 -70 14 -140z m373 157
c-12 -6 -27 -25 -33 -42 -21 -55 -26 -61 -80 -78 -28 -10 -60 -23 -69 -30 -9
-6 15 18 54 54 38 37 72 66 75 65 3 -1 15 8 28 21 12 12 28 22 35 21 6 0 2 -5
-10 -11z m5071 -36 c35 -26 45 -41 69 -113 l29 -84 -26 -80 c-15 -44 -26 -84
-26 -90 0 -5 18 -37 40 -70 58 -87 56 -101 -38 -219 -60 -75 -101 -99 -190
-110 -43 -6 -53 -4 -59 10 -8 21 -119 74 -155 74 l-28 0 0 101 c0 88 -3 109
-27 161 l-26 59 30 62 c17 34 34 76 37 92 4 18 31 54 69 91 34 34 81 83 105
109 l44 48 56 -6 c39 -4 67 -14 96 -35z m1519 -67 c14 -44 41 -127 59 -184 24
-76 40 -109 61 -127 26 -22 27 -26 28 -131 1 -81 6 -119 20 -152 11 -24 19
-48 19 -53 0 -5 11 -26 25 -46 29 -43 31 -76 9 -132 -32 -81 4 -93 73 -23 28
27 63 51 87 58 37 11 63 22 186 79 54 25 160 93 201 130 34 32 105 64 115 53
6 -6 -73 -71 -161 -132 -38 -27 -79 -57 -90 -66 -11 -10 -50 -33 -85 -52 -52
-27 -73 -45 -102 -90 -43 -63 -91 -104 -140 -117 -60 -17 -126 -67 -162 -122
-41 -65 -61 -83 -152 -141 -81 -53 -142 -116 -150 -155 -3 -16 -30 -57 -61
-93 -30 -35 -67 -87 -81 -115 -17 -33 -67 -89 -138 -157 -90 -85 -120 -108
-155 -116 -122 -30 -145 -42 -229 -111 -83 -69 -100 -79 -100 -61 0 19 143
139 221 185 62 37 87 59 110 95 16 26 40 53 54 59 14 6 33 25 43 41 9 16 40
47 67 68 57 45 105 104 105 128 0 9 -7 30 -16 47 -16 30 -15 31 23 70 21 22
54 48 73 58 19 10 44 27 54 39 18 20 18 23 3 38 -15 15 -12 18 32 39 27 12 61
25 77 28 56 13 66 29 74 113 5 43 17 103 28 133 11 30 25 79 30 107 10 58 2
79 -33 85 -17 3 -21 14 -26 73 -4 39 -17 95 -29 125 -17 42 -24 89 -31 195 -5
77 -12 154 -15 171 -4 21 0 41 15 65 17 27 21 51 21 119 1 95 5 92 43 -25z
m-7157 63 c-19 -102 -19 -105 4 -136 l22 -30 -23 -60 c-13 -33 -27 -58 -31
-56 -8 5 -2 243 7 286 9 40 29 36 21 -4z m702 20 c8 -8 40 -11 92 -9 53 1 80
-2 80 -9 0 -18 -65 -40 -117 -40 -49 0 -132 -33 -134 -53 -1 -7 -1 -23 0 -37
0 -19 -15 -38 -68 -80 -111 -90 -129 -127 -87 -177 14 -17 26 -36 26 -42 0 -5
-13 -32 -30 -58 -38 -60 -42 -124 -8 -147 30 -22 42 -20 88 10 30 20 46 24 69
19 16 -3 39 -1 51 5 18 9 28 6 67 -19 52 -35 71 -38 113 -16 38 20 50 2 19
-31 -19 -20 -31 -24 -75 -22 -43 2 -60 -3 -86 -22 -19 -14 -49 -25 -71 -26
-49 -3 -71 -23 -114 -108 -36 -71 -52 -75 -53 -14 0 14 -11 39 -24 55 -16 19
-23 37 -19 54 3 16 -3 34 -17 52 -18 23 -29 27 -61 25 -21 -1 -41 1 -44 4 -4
3 5 35 19 70 29 72 30 77 16 98 -7 12 -12 12 -29 -5 -29 -25 -38 -12 -15 21
45 63 53 80 60 118 3 22 15 60 25 84 11 24 19 58 19 75 0 55 20 78 85 101 53
18 61 25 71 56 18 57 118 102 152 68z m2547 -130 c8 -77 -3 -88 -29 -29 -15
33 -16 44 -5 80 16 52 24 39 34 -51z m4005 -48 c18 -52 43 -115 55 -140 12
-25 25 -58 28 -75 6 -27 5 -28 -5 -8 -6 13 -19 25 -29 28 -9 3 -20 13 -24 23
-23 58 -56 155 -69 207 -8 33 -18 71 -22 85 l-7 25 20 -25 c10 -14 34 -68 53
-120z m-4149 68 c-6 -17 -11 -41 -11 -53 0 -12 -9 -42 -19 -66 -10 -24 -22
-65 -25 -91 -6 -42 -13 -52 -50 -78 -60 -41 -119 -104 -133 -142 -12 -33 -12
-33 -12 -6 -1 15 4 47 9 70 6 24 17 79 25 122 9 44 18 82 20 85 3 2 14 -5 25
-17 26 -28 41 -28 68 1 22 23 29 39 78 167 16 43 30 67 32 57 2 -10 -1 -32 -7
-49z m-756 5 c3 -21 10 -69 16 -108 14 -96 49 -253 65 -294 8 -19 16 -89 20
-165 l5 -131 -20 35 c-11 19 -32 72 -46 116 -19 63 -34 90 -62 118 -21 20 -43
36 -50 36 -16 0 -62 -72 -80 -124 -8 -21 -21 -52 -29 -68 -9 -16 -13 -35 -11
-41 2 -7 0 -23 -5 -37 l-10 -25 -18 35 c-26 47 -25 82 4 139 14 26 33 78 42
114 15 57 16 74 6 112 -11 40 -10 51 11 102 19 47 28 58 57 68 32 11 37 18 58
83 13 40 27 72 32 72 5 0 12 -17 15 -37z m-1555 4 c0 -2 -21 -18 -48 -35 -56
-36 -144 -123 -174 -172 -11 -19 -27 -57 -33 -85 -7 -27 -13 -43 -14 -34 -1 9
-10 24 -21 34 -35 31 -25 59 37 112 109 91 126 111 119 138 -8 32 14 44 82 45
28 0 52 -1 52 -3z m1473 -41 c-4 -28 -12 -40 -32 -48 -49 -19 -54 -24 -74 -78
-11 -30 -22 -50 -24 -43 -4 11 20 68 51 121 19 32 76 96 81 90 2 -2 2 -21 -2
-42z m179 -64 c11 -17 31 -35 44 -38 27 -7 30 -17 38 -126 5 -66 3 -83 -14
-110 -24 -39 -26 -96 -5 -124 8 -10 15 -37 15 -59 0 -22 7 -50 15 -62 16 -22
9 -33 -27 -46 -21 -7 -25 9 -34 143 -3 58 -12 121 -19 140 -23 62 -75 316 -75
366 0 28 0 28 21 -11 12 -22 30 -55 41 -73z m-2965 -5 c-34 -30 -61 -65 -66
-83 -17 -63 39 -135 156 -201 35 -19 65 -38 67 -41 2 -4 -18 -7 -46 -7 -47 1
-51 3 -64 33 -11 27 -18 32 -48 32 -34 0 -38 4 -66 60 -17 34 -36 63 -43 65
-7 2 -24 6 -39 9 -39 9 -35 29 10 59 22 14 44 39 51 55 10 24 22 32 59 42 26
6 54 15 62 20 31 18 24 9 -33 -43z m3379 -117 c-30 -161 -46 -274 -46 -314 0
-75 -13 -70 -68 22 -29 49 -65 101 -82 117 -16 16 -30 34 -30 41 0 6 -6 17
-14 23 -30 25 -57 -62 -37 -121 15 -42 4 -148 -15 -148 -10 0 -14 14 -14 48 0
26 -7 56 -15 66 -20 27 -19 59 4 104 16 31 19 57 18 137 -2 101 7 141 24 114
5 -8 9 -23 9 -34 2 -42 34 -90 65 -95 24 -4 31 -11 33 -32 4 -36 49 -73 68
-57 8 6 14 19 14 29 0 10 21 71 48 137 42 105 47 114 50 83 2 -19 -3 -73 -12
-120z m-70 50 c-8 -25 -24 -69 -34 -98 l-20 -54 -13 44 c-12 38 -18 43 -46 46
-28 3 -34 8 -43 40 -12 44 -13 73 -2 55 21 -34 161 -20 163 16 0 9 3 11 5 6 2
-6 -2 -31 -10 -55z m444 -87 c-12 -102 -8 -200 10 -273 30 -118 17 -139 -21
-34 -25 68 -29 92 -29 190 0 86 5 128 21 180 12 38 24 63 27 55 2 -8 -1 -61
-8 -118z m-2139 13 c-6 -52 -19 -111 -28 -130 -14 -31 -15 -40 -3 -76 11 -35
11 -53 -3 -128 -10 -48 -17 -95 -17 -104 0 -29 -32 -100 -41 -91 -5 5 -2 46 6
91 8 46 19 149 26 230 10 129 9 152 -4 185 l-16 37 42 44 c23 25 43 43 45 41
2 -1 -1 -46 -7 -99z m5181 52 c-6 -37 16 -58 62 -58 17 0 46 -9 64 -20 18 -11
44 -20 57 -20 30 0 30 4 4 -90 -11 -41 -23 -85 -26 -98 -3 -13 2 -41 13 -63
14 -33 15 -44 6 -60 -15 -23 -16 -88 -2 -124 10 -27 -3 -186 -18 -209 -3 -6
-5 -19 -3 -30 3 -18 2 -18 -30 0 -17 11 -41 34 -51 51 -11 18 -24 31 -28 28
-18 -11 -40 91 -39 178 2 85 1 89 -35 142 -30 45 -36 64 -36 107 0 51 -1 54
-62 111 -46 44 -59 63 -52 73 5 8 47 36 94 63 47 28 85 50 86 50 0 1 -2 -13
-4 -31z m-4130 -106 c9 -35 7 -53 -7 -100 -19 -62 -64 -157 -70 -150 -3 2 6
49 19 104 13 54 27 128 32 164 4 36 9 56 11 45 2 -11 9 -39 15 -63z m-2118
-72 c-10 -85 0 -225 17 -236 5 -3 9 -38 8 -77 l-1 -72 -24 95 c-13 52 -29 153
-34 225 -6 72 -15 145 -20 164 l-9 33 35 -38 c33 -37 34 -41 28 -94z m6660 54
c39 -22 54 -25 91 -19 36 5 51 2 73 -13 15 -11 34 -22 42 -25 15 -6 -44 -1
-116 9 -53 7 -108 -15 -127 -53 -8 -15 -20 -73 -27 -128 -7 -55 -23 -138 -35
-185 l-22 -85 -4 54 c-3 40 2 68 19 110 20 46 22 64 15 101 -6 31 -4 59 5 90
8 27 11 67 8 101 -8 80 2 85 78 43z m-694 -87 c0 -55 3 -62 40 -100 23 -23 65
-76 95 -117 51 -69 55 -79 55 -129 0 -30 -2 -52 -4 -50 -2 2 -16 33 -30 69
-49 119 -118 161 -171 104 -16 -17 -25 -22 -25 -13 0 11 -2 11 -10 -1 -14 -22
-12 2 5 50 9 26 15 79 15 134 0 50 3 102 7 114 10 39 23 4 23 -61z m1379 -42
c1 -27 12 -81 26 -120 30 -87 68 -125 124 -125 38 0 138 36 216 79 22 11 43
21 47 21 4 0 19 11 34 25 15 14 34 25 42 25 9 0 25 8 36 17 14 12 13 9 -4 -10
-14 -16 -52 -45 -85 -64 -32 -19 -70 -43 -83 -54 -14 -10 -31 -19 -38 -19 -7
0 -41 -13 -76 -29 -35 -16 -80 -35 -101 -41 -23 -7 -50 -27 -69 -51 -35 -44
-44 -45 -28 -3 20 51 15 99 -14 137 -14 18 -26 43 -26 53 0 11 -7 30 -16 42
-18 26 -26 210 -9 215 13 5 22 -34 24 -98z m-6808 20 c8 -9 44 -20 80 -26 109
-18 190 -41 186 -53 -7 -23 -58 -18 -98 9 -30 22 -44 26 -66 19 -15 -4 -42 -7
-60 -5 -20 2 -49 -7 -78 -25 -39 -22 -49 -25 -56 -13 -16 26 -9 63 23 116 l33
54 10 -30 c5 -17 17 -37 26 -46z m-1530 19 c50 -44 54 -46 100 -41 52 6 66 -4
108 -73 31 -51 26 -54 -26 -16 -101 71 -145 82 -181 43 -19 -20 -21 -37 -26
-182 -4 -120 -2 -171 8 -205 8 -25 17 -60 20 -79 6 -31 3 -29 -34 27 -52 77
-58 108 -31 160 25 49 27 89 6 138 -10 25 -12 41 -5 54 15 28 12 57 -10 100
-11 22 -20 47 -20 57 0 17 26 63 35 63 2 0 28 -21 56 -46z m3683 -120 c25 -45
46 -84 46 -87 0 -3 -13 1 -29 9 -16 8 -46 15 -67 17 l-39 2 -6 65 c-4 36 -10
83 -14 105 l-8 40 35 -35 c20 -19 56 -71 82 -116z m-400 65 c14 -17 26 -34 26
-37 0 -4 9 -37 19 -75 l19 -67 -27 26 c-39 39 -69 48 -98 29 -13 -9 -27 -23
-30 -31 -6 -17 -33 -19 -33 -1 0 16 58 157 72 174 15 19 23 16 52 -18z m-2596
-39 c18 -19 60 -75 95 -124 57 -83 100 -131 196 -218 20 -19 54 -67 74 -108
35 -71 36 -73 9 -47 -15 14 -39 30 -54 36 -18 7 -36 28 -52 60 -18 35 -37 56
-68 73 -37 20 -45 30 -55 71 -15 63 -43 105 -89 137 -24 16 -42 39 -51 65 -7
22 -28 58 -45 80 -36 45 -10 29 40 -25z m1591 2 c11 -21 27 -44 36 -52 25 -21
54 -83 66 -142 8 -36 21 -64 44 -88 35 -38 68 -97 79 -145 4 -16 22 -52 40
-80 33 -50 58 -139 32 -113 -7 7 -54 94 -106 193 -93 181 -105 204 -144 284
-35 73 -87 92 -130 46 -20 -21 -51 -105 -58 -159 -2 -11 -9 -21 -17 -24 -9 -3
-12 0 -9 9 3 8 16 71 29 142 19 103 26 127 40 127 9 0 27 9 40 20 33 26 36 25
58 -18z m341 -114 c29 -63 80 -226 80 -257 0 -9 11 -50 25 -92 13 -42 21 -86
18 -99 -5 -19 -9 -14 -29 34 -28 70 -64 214 -64 259 0 18 -11 54 -25 78 -38
67 -52 100 -59 144 -7 39 -7 39 9 18 9 -13 29 -51 45 -85z m2834 30 c3 -17 6
-42 6 -56 0 -24 -1 -24 -19 -8 -10 9 -30 39 -44 65 l-25 48 38 -9 c31 -8 39
-15 44 -40z m-5089 2 c10 -11 32 -22 50 -26 32 -6 62 -44 80 -103 6 -19 5 -22
-6 -13 -102 85 -162 121 -203 122 -16 0 -16 2 5 20 31 25 51 25 74 0z m3528
-92 l62 -30 -41 5 c-22 3 -61 14 -87 25 l-45 20 16 37 17 36 8 -31 c6 -26 19
-37 70 -62z m204 -9 l19 -55 -75 15 c-41 9 -66 18 -56 20 29 5 60 29 75 56 7
14 14 24 16 22 1 -1 11 -27 21 -58z m4843 57 c0 -2 -7 -7 -16 -10 -8 -3 -12
-2 -9 4 6 10 25 14 25 6z m-7160 -16 c0 -5 -1 -10 -3 -10 -20 0 -177 -76 -209
-101 -56 -45 -70 -46 -53 -6 21 51 53 77 94 77 23 0 46 9 66 25 30 25 105 36
105 15z m7110 -25 c-7 -8 -18 -15 -25 -15 -7 0 -19 -10 -28 -22 -12 -18 -15
-19 -13 -5 1 9 18 28 37 41 36 26 50 26 29 1z m-84 -47 c-1 -7 -4 -13 -6 -13
-9 0 -150 -124 -208 -183 -31 -33 -73 -67 -92 -77 -19 -10 -37 -21 -40 -25 -3
-4 -20 -15 -37 -24 -18 -9 -72 -56 -120 -104 -49 -49 -115 -109 -148 -134 -81
-62 -99 -83 -198 -226 -109 -158 -135 -190 -227 -282 -75 -76 -161 -127 -265
-160 -22 -7 -55 -21 -72 -32 -18 -11 -33 -16 -33 -12 0 4 -5 3 -12 -4 -7 -7
-17 -12 -22 -12 -16 0 55 59 89 73 17 7 57 19 90 26 33 7 74 21 90 32 52 32
231 222 259 274 15 28 51 78 81 112 30 34 55 70 55 81 0 38 48 88 150 157 66
45 112 84 125 105 35 59 107 124 155 140 84 26 165 96 185 159 5 16 27 32 69
52 33 16 77 42 96 58 41 36 39 34 36 19z m-8136 -107 c33 -66 52 -84 102 -100
31 -10 43 -23 74 -81 30 -55 45 -72 76 -86 47 -21 88 -67 88 -99 0 -32 36
-114 63 -144 12 -13 15 -20 7 -16 -15 9 -35 34 -55 67 -5 9 -24 41 -42 71 -38
65 -290 328 -375 392 l-59 44 33 14 c41 18 51 11 88 -62z m1297 7 c-3 -8 -6
-5 -6 6 -1 11 2 17 5 13 3 -3 4 -12 1 -19z m138 -9 c-9 -17 -19 -29 -21 -26
-7 7 18 57 28 57 5 0 1 -14 -7 -31z m5065 -24 c0 -5 -5 -3 -10 5 -5 8 -10 20
-10 25 0 6 5 3 10 -5 5 -8 10 -19 10 -25z m357 -7 c-3 -7 -5 -2 -5 12 0 14 2
19 5 13 2 -7 2 -19 0 -25z m-1531 -119 c22 -11 25 -19 23 -64 -1 -28 1 -57 5
-63 4 -7 5 -12 2 -12 -12 0 -77 159 -75 184 0 6 5 1 11 -10 5 -12 21 -28 34
-35z m-4841 -179 c19 -35 37 -78 40 -95 2 -16 2 -23 -1 -15 -4 8 -24 38 -44
65 -37 48 -60 108 -60 150 1 16 4 13 15 -10 8 -16 31 -59 50 -95z m-1130 98
c2 -7 6 -51 8 -98 5 -84 5 -84 -13 -60 -26 33 -33 73 -25 126 6 42 21 58 30
32z m6065 -107 c35 -29 37 -48 3 -37 -18 6 -59 66 -45 66 4 0 23 -13 42 -29z
m1829 16 c-2 -1 -13 -9 -24 -17 -19 -14 -19 -14 -6 3 7 9 18 17 24 17 6 0 8
-1 6 -3z m-19 -68 c10 -17 6 -22 -26 -35 -20 -8 -59 -36 -87 -62 l-51 -47 34
50 c45 65 101 126 112 119 4 -3 13 -14 18 -25z m-7892 -106 c-13 -49 -58 -86
-58 -48 0 12 56 85 65 85 2 0 -1 -17 -7 -37z m7747 -103 c20 -39 13 -53 -70
-126 -37 -32 -73 -70 -81 -86 -8 -15 -21 -28 -28 -28 -13 0 -39 -27 -95 -100
-20 -26 -121 -89 -121 -76 0 3 60 66 134 140 124 125 206 216 206 228 0 10 30
78 35 78 2 0 11 -14 20 -30z m-435 -450 c-19 -17 -44 -35 -55 -41 -25 -14 -21
-10 33 35 53 43 71 48 22 6z"/>
<path d="M1131 16009 c-13 -5 -42 -26 -64 -45 -37 -34 -42 -36 -91 -30 -55 7
-64 4 -89 -34 -22 -32 -21 -57 3 -103 14 -27 20 -56 20 -105 0 -64 2 -71 30
-95 27 -25 30 -33 30 -91 0 -56 3 -66 30 -94 25 -26 29 -39 28 -76 -2 -32 3
-51 17 -65 16 -19 17 -27 7 -72 -19 -82 10 -109 80 -73 29 15 32 15 60 -6 37
-27 63 -22 112 25 20 19 56 39 79 45 23 6 53 14 67 18 31 9 66 70 74 132 5 35
17 62 47 99 52 65 66 119 43 163 -14 26 -14 38 -4 70 11 39 11 40 -34 88 -36
39 -46 56 -46 84 0 48 -44 99 -79 93 -14 -2 -34 -7 -43 -11 -13 -6 -23 2 -42
32 -14 22 -31 44 -38 48 -19 12 -170 14 -197 3z m166 -29 c13 0 26 -7 30 -17
10 -29 55 -73 75 -73 10 0 28 6 39 13 18 10 23 9 40 -12 11 -13 19 -38 19 -60
0 -30 8 -44 44 -80 l44 -43 -15 -36 c-14 -33 -14 -39 2 -69 24 -45 13 -92 -35
-149 -22 -25 -40 -48 -40 -52 0 -4 -4 -34 -10 -66 -11 -70 -40 -106 -82 -106
-37 0 -83 -23 -131 -66 -43 -40 -48 -41 -72 -14 -22 24 -46 25 -86 4 -17 -8
-34 -13 -37 -9 -3 3 -1 31 6 63 12 53 11 58 -8 71 -16 11 -20 25 -20 70 0 63
-7 77 -41 95 -13 7 -23 19 -21 26 2 8 4 35 4 62 1 42 -3 53 -32 83 -32 33 -33
36 -27 94 4 49 2 65 -13 83 -28 37 -33 66 -16 94 15 21 22 23 56 18 55 -9 82
0 136 47 47 41 49 41 107 35 33 -3 71 -6 84 -6z"/>
<path d="M1108 15919 c-34 -12 -73 -36 -97 -60 -36 -34 -41 -44 -41 -85 0 -45
30 -169 55 -229 7 -16 16 -41 20 -55 63 -230 90 -277 163 -287 32 -4 55 1 109
26 80 38 114 68 138 121 10 22 21 37 25 35 4 -3 10 9 14 25 3 17 14 49 25 73
36 80 37 132 2 223 -70 180 -247 272 -413 213z"/>
<path d="M8212 15271 c-15 -16 -42 -46 -59 -65 -18 -20 -33 -42 -33 -50 0 -8
16 -33 35 -56 19 -23 39 -49 44 -58 14 -25 60 -5 89 38 19 28 23 44 19 83 -4
44 -2 49 25 68 20 14 28 28 26 43 -3 18 -10 21 -61 24 -53 3 -60 1 -85 -27z
m85 -29 c-24 -25 -26 -33 -21 -74 6 -40 3 -49 -24 -79 l-30 -34 -13 27 c-6 15
-23 35 -36 43 -28 19 -29 36 -3 53 11 6 31 30 45 52 23 36 29 40 67 40 l42 0
-27 -28z"/>
<path d="M5192 14820 c-87 -63 -99 -170 -18 -170 73 0 121 107 78 173 l-19 27
-41 -30z m41 -60 c-2 -40 -43 -86 -68 -76 -25 9 -12 65 23 93 35 29 47 24 45
-17z"/>
<path d="M7606 15179 c-35 -27 -56 -70 -56 -112 0 -19 -7 -40 -16 -48 -32 -27
-47 -71 -41 -127 7 -63 27 -99 59 -104 15 -2 31 -18 46 -45 22 -41 26 -43 70
-43 26 0 52 4 59 8 22 14 25 60 8 105 -16 42 -16 48 1 102 l19 58 -50 43 -49
44 12 60 c7 33 10 65 7 70 -10 16 -41 11 -69 -11z m28 -64 c-9 -63 1 -90 42
-114 34 -20 36 -24 29 -59 -9 -47 -9 -114 0 -169 l7 -43 -35 0 c-31 0 -38 5
-59 43 -17 31 -30 43 -50 45 -30 4 -35 13 -44 79 -5 42 -2 53 24 88 18 26 31
58 34 88 5 45 30 87 50 87 5 0 6 -20 2 -45z"/>
<path d="M4441 15077 c-18 -23 -52 -147 -46 -168 5 -16 12 -19 32 -14 18 4 29
1 38 -11 8 -11 19 -15 30 -10 16 6 17 15 11 89 -9 103 -35 150 -65 114z m29
-69 c0 -18 3 -43 6 -55 5 -19 2 -22 -25 -21 -21 1 -30 5 -27 13 2 7 10 31 17
54 15 49 29 53 29 9z"/>
<path d="M8402 14960 c-44 -19 -49 -85 -12 -160 29 -57 68 -191 85 -291 17
-96 35 -152 54 -163 6 -4 22 4 35 17 l25 25 -1 228 c-1 199 -3 234 -19 264
-31 61 -115 102 -167 80z"/>
<path d="M2181 14694 c0 -11 3 -14 6 -6 3 7 2 16 -1 19 -3 4 -6 -2 -5 -13z"/>
</g>
</svg>
